<svg width="26" height="26" viewBox="0 0 26 26" fill="none" xmlns="http://www.w3.org/2000/svg"><path d="M24.3313 6.50004C23.4971 6.87921 22.598 7.12837 21.6663 7.24754C22.6196 6.67337 23.3563 5.76337 23.703 4.66921C22.8038 5.21087 21.8071 5.59004 20.7563 5.80671C19.9005 4.87504 18.698 4.33337 17.333 4.33337C14.7871 4.33337 12.7071 6.41337 12.7071 8.98087C12.7071 9.34921 12.7505 9.70671 12.8263 10.0425C8.96964 9.84754 5.53547 7.99504 3.24964 5.18921C2.8488 5.87171 2.6213 6.67337 2.6213 7.51837C2.6213 9.13254 3.4338 10.5625 4.69047 11.375C3.9213 11.375 3.2063 11.1584 2.57797 10.8334V10.8659C2.57797 13.1192 4.1813 15.0042 6.30464 15.4267C5.62292 15.6133 4.90724 15.6392 4.2138 15.5025C4.50804 16.4261 5.0843 17.2341 5.86157 17.8132C6.63884 18.3923 7.57804 18.7132 8.54714 18.7309C6.9044 20.0313 4.86813 20.7343 2.77297 20.7242C2.40464 20.7242 2.0363 20.7025 1.66797 20.6592C3.7263 21.9809 6.17464 22.75 8.7963 22.75C17.333 22.75 22.0238 15.665 22.0238 9.52254C22.0238 9.31671 22.0238 9.12171 22.013 8.91587C22.923 8.26587 23.703 7.44254 24.3313 6.50004Z" fill="#1E1E1E"/></svg>