<svg width="30" height="8" viewBox="0 0 30 8" fill="none" xmlns="http://www.w3.org/2000/svg"><path d="M3.46158 7.40199C2.54352 7.40199 1.66305 7.01206 1.01387 6.31799C0.364702 5.62392 0 4.68256 0 3.70099C0 2.71943 0.364702 1.77807 1.01387 1.084C1.66305 0.389924 2.54352 0 3.46158 0C4.37965 0 5.26012 0.389924 5.90929 1.084C6.55847 1.77807 6.92317 2.71943 6.92317 3.70099C6.92317 4.68256 6.55847 5.62392 5.90929 6.31799C5.26012 7.01206 4.37965 7.40199 3.46158 7.40199ZM15.0002 7.40199C14.0821 7.40199 13.2017 7.01206 12.5525 6.31799C11.9033 5.62392 11.5386 4.68256 11.5386 3.70099C11.5386 2.71943 11.9033 1.77807 12.5525 1.084C13.2017 0.389924 14.0821 0 15.0002 0C15.9183 0 16.7987 0.389924 17.4479 1.084C18.0971 1.77807 18.4618 2.71943 18.4618 3.70099C18.4618 4.68256 18.0971 5.62392 17.4479 6.31799C16.7987 7.01206 15.9183 7.40199 15.0002 7.40199ZM26.5388 7.40199C25.6207 7.40199 24.7403 7.01206 24.0911 6.31799C23.4419 5.62392 23.0772 4.68256 23.0772 3.70099C23.0772 2.71943 23.4419 1.77807 24.0911 1.084C24.7403 0.389924 25.6207 0 26.5388 0C27.4569 0 28.3374 0.389924 28.9865 1.084C29.6357 1.77807 30.0004 2.71943 30.0004 3.70099C30.0004 4.68256 29.6357 5.62392 28.9865 6.31799C28.3374 7.01206 27.4569 7.40199 26.5388 7.40199Z" fill="#292929"/></svg>