<svg width="22" height="25" viewBox="0 0 22 25" fill="none" xmlns="http://www.w3.org/2000/svg"><g clip-path="url(#clip0_138_2780)"><path d="M13.0306 1.56905C11.8948 0.523325 10.0941 0.519173 8.97774 1.55554L1.89423 8.11803L1.89304 8.11913C1.49919 8.48235 1.15388 9.05911 0.932885 9.72895C0.711991 10.3985 0.636835 11.0958 0.721257 11.6716L0.721515 11.6733L2.08366 21.095C2.08373 21.0955 2.08381 21.096 2.08389 21.0966C2.34409 22.8444 3.76389 24.2187 5.26653 24.2187H16.7299C18.2093 24.2187 19.6632 22.8086 19.9235 21.0831C19.9236 21.0825 19.9237 21.0818 19.9238 21.081L21.285 11.6661C21.3601 11.0944 21.2798 10.398 21.0583 9.72788C20.8364 9.05682 20.4953 8.47928 20.1109 8.11607L13.0306 1.56905ZM13.0306 1.56905C13.0308 1.56918 13.0304 1.56892 13.0306 1.56905Z" stroke="black" stroke-width="1.5"/><path d="M11.9168 10.4167C11.9168 9.84137 11.5064 9.375 11.0002 9.375C10.4939 9.375 10.0835 9.84137 10.0835 10.4167V18.75C10.0835 19.3253 10.4939 19.7917 11.0002 19.7917C11.5064 19.7917 11.9168 19.3253 11.9168 18.75V10.4167Z" fill="#EAB849"/></g><defs><clipPath id="clip0_138_2780"><rect width="22" height="25" fill="white"/></clipPath></defs></svg>