<svg width="16" height="15" viewBox="0 0 16 15" fill="none" xmlns="http://www.w3.org/2000/svg"><path d="M14.9175 4.16105L13.5362 5.51169C13.3954 5.64939 13.1677 5.64939 13.0269 5.51169L9.70106 2.25961C9.56024 2.12191 9.56024 1.89924 9.70106 1.76154L11.0823 0.410905C11.6426 -0.136968 12.5535 -0.136968 13.1168 0.410905L14.9175 2.17172C15.4808 2.71959 15.4808 3.61025 14.9175 4.16105ZM8.51456 2.92174L0.646474 10.6154L0.0112749 14.1751C-0.0756155 14.6556 0.352844 15.0716 0.844225 14.9896L4.48464 14.3655L12.3527 6.67189C12.4935 6.53419 12.4935 6.31152 12.3527 6.17382L9.02691 2.92174C8.88309 2.78404 8.65538 2.78404 8.51456 2.92174ZM3.7176 9.9562C3.55281 9.79506 3.55281 9.53724 3.7176 9.3761L8.33179 4.8642C8.49658 4.70306 8.76025 4.70306 8.92504 4.8642C9.08983 5.02534 9.08983 5.28316 8.92504 5.4443L4.31085 9.9562C4.14606 10.1173 3.88239 10.1173 3.7176 9.9562ZM2.63597 12.4202H4.07415V13.4837L2.14159 13.8147L1.20976 12.9036L1.54834 11.0139H2.63597V12.4202Z" fill="white"/></svg>