<svg width="9" height="17" viewBox="0 0 9 17" fill="none" xmlns="http://www.w3.org/2000/svg"><path d="M0.277373 9.05383H2.13924V16.7257C2.13924 16.7984 2.16811 16.8681 2.2195 16.9195C2.27088 16.9709 2.34057 16.9998 2.41324 16.9998H5.571C5.64367 16.9998 5.71336 16.9709 5.76475 16.9195C5.81613 16.8681 5.84501 16.7984 5.84501 16.7257V9.08979H7.98649C8.05364 9.08968 8.11842 9.0649 8.16851 9.02016C8.21861 8.97542 8.25054 8.91383 8.25825 8.84709L8.5839 6.0224C8.58833 5.98404 8.58461 5.94517 8.57299 5.90834C8.56136 5.87152 8.54208 5.83757 8.51642 5.80871C8.49077 5.77986 8.4593 5.75675 8.4241 5.74091C8.3889 5.72507 8.35074 5.71685 8.31214 5.71679H5.84163V3.94715C5.84163 3.41344 6.12912 3.14266 6.69509 3.14266H8.30765C8.38032 3.14266 8.45001 3.11378 8.50139 3.06236C8.55278 3.01095 8.58165 2.94122 8.58165 2.86851V0.276401C8.58226 0.204075 8.55428 0.134441 8.50379 0.0826691C8.45331 0.0308974 8.38442 0.00118321 8.31214 0L6.08757 0H5.98538C4.96099 0.00361689 3.97224 0.376599 3.20044 1.05055C2.83625 1.369 2.55681 1.77298 2.38727 2.22621C2.21772 2.67943 2.16336 3.1677 2.22908 3.64715V5.71791H0.273997C0.201327 5.71791 0.131637 5.7468 0.0802518 5.79821C0.0288664 5.84962 7.83309e-10 5.91936 7.83309e-10 5.99207V8.77968C-2.7406e-06 8.81596 0.00719021 8.85189 0.0211703 8.88537C0.0351504 8.91886 0.0556413 8.94923 0.0814427 8.97473C0.107244 9.00024 0.137845 9.02036 0.171479 9.03394C0.205112 9.04751 0.241108 9.05428 0.277373 9.05383Z" fill="white"/></svg>

