<svg width="33" height="19" viewBox="0 0 33 19" fill="none" xmlns="http://www.w3.org/2000/svg"><path d="M27.996 5.32342L27.939 5.5355C27.7758 5.50155 27.6048 5.47599 27.4255 5.47599C26.1865 5.47599 25.1759 6.52887 25.1759 7.81061C25.1759 8.83792 25.8117 9.71225 26.6917 10.0266L25.7055 13.5751C24.7111 16.1729 20.4244 15.0609 19.9922 13.2779L20.3103 8.80397C21.5084 8.74445 22.462 7.73432 22.462 6.46936C22.462 5.33181 21.6795 4.38119 20.6442 4.16869L20.783 2.25866C20.783 -0.57683 12.8528 -0.788915 12.6408 1.88521L12.7549 4.12636C11.6303 4.24497 10.7499 5.24672 10.7499 6.46097C10.7499 7.75151 11.7526 8.80397 12.9912 8.80397C12.9994 8.80397 12.9995 8.80397 13.0077 8.80397L13.2114 12.4459C13.2114 15.0521 9.20972 16.1645 7.35142 13.8555L6.31608 9.85685C7.18822 9.53411 7.81577 8.66817 7.81577 7.64965C7.81577 6.35912 6.81351 5.30624 5.57451 5.30624C5.43611 5.30624 5.29729 5.32342 5.15063 5.35737L5.14278 5.30624C5.14278 5.30624 4.36027 3.15017 0 3.59991L5.56625 19H27.3114L32.9999 3.812C33.0165 3.82918 29.9192 2.50469 27.996 5.32342Z" fill="black"/></svg>