<svg width="188" height="188" viewBox="0 0 188 188" fill="none" xmlns="http://www.w3.org/2000/svg"><path d="M173.117 94.7833C173.117 51.6216 137.945 16.45 94.7835 16.45C51.6219 16.45 16.4502 51.6216 16.4502 94.7833C16.4502 117.5 26.2419 137.945 41.7519 152.28C41.7519 152.358 41.7519 152.358 41.6735 152.437C42.4569 153.22 43.3969 153.847 44.1802 154.552C44.6502 154.943 45.0419 155.335 45.5119 155.648C46.9219 156.823 48.4885 157.92 49.9769 159.017C50.5252 159.408 50.9952 159.722 51.5435 160.113C53.0319 161.132 54.5985 162.072 56.2435 162.933C56.7919 163.247 57.4185 163.638 57.9669 163.952C59.5335 164.813 61.1785 165.597 62.9019 166.302C63.5285 166.615 64.1552 166.928 64.7819 167.163C66.5052 167.868 68.2285 168.495 69.9519 169.043C70.5785 169.278 71.2052 169.513 71.8319 169.67C73.7119 170.218 75.5919 170.688 77.4719 171.158C78.0202 171.315 78.5685 171.472 79.1952 171.55C81.3885 172.02 83.5819 172.333 85.8535 172.568C86.1669 172.568 86.4802 172.647 86.7935 172.725C89.4569 172.96 92.1202 173.117 94.7835 173.117C97.4469 173.117 100.11 172.96 102.695 172.725C103.009 172.725 103.322 172.647 103.635 172.568C105.907 172.333 108.1 172.02 110.294 171.55C110.842 171.472 111.39 171.237 112.017 171.158C113.897 170.688 115.855 170.297 117.657 169.67C118.284 169.435 118.91 169.2 119.537 169.043C121.26 168.417 123.062 167.868 124.707 167.163C125.334 166.928 125.96 166.615 126.587 166.302C128.232 165.597 129.877 164.813 131.522 163.952C132.149 163.638 132.697 163.247 133.245 162.933C134.812 161.993 136.379 161.132 137.945 160.113C138.494 159.8 138.964 159.408 139.512 159.017C141.079 157.92 142.567 156.823 143.977 155.648C144.447 155.257 144.839 154.865 145.309 154.552C146.17 153.847 147.032 153.142 147.815 152.437C147.815 152.358 147.815 152.358 147.737 152.28C163.325 137.945 173.117 117.5 173.117 94.7833ZM133.48 133.715C112.252 119.458 77.4719 119.458 56.0869 133.715C52.6402 135.987 49.8202 138.65 47.4702 141.548C35.5635 129.485 28.2002 112.957 28.2002 94.7833C28.2002 58.0449 58.0452 28.1999 94.7835 28.1999C131.522 28.1999 161.367 58.0449 161.367 94.7833C161.367 112.957 154.004 129.485 142.097 141.548C139.825 138.65 136.927 135.987 133.48 133.715Z" fill="#191919"/><path d="M94 54.2825C77.785 54.2825 64.625 67.4425 64.625 83.6575C64.625 99.5592 77.08 112.484 93.6083 112.954C93.8433 112.954 94.1567 112.954 94.3133 112.954C94.47 112.954 94.705 112.954 94.8617 112.954C94.94 112.954 95.0183 112.954 95.0183 112.954C110.842 112.406 123.297 99.5592 123.375 83.6575C123.375 67.4425 110.215 54.2825 94 54.2825Z" fill="#191919"/></svg>