<svg width="25" height="25" viewBox="0 0 25 25" fill="none" xmlns="http://www.w3.org/2000/svg"><g clip-path="url(#clip0_136_609)"><path d="M12.5001 2.51595e-06C9.5856 -0.00184586 6.76204 1.01481 4.51765 2.87418C2.27327 4.73355 0.749164 7.31874 0.208871 10.1828C-0.331423 13.0468 0.14606 16.0096 1.55876 18.5588C2.97146 21.1081 5.23056 23.0836 7.94545 24.1438C7.83607 23.1547 7.73607 21.6344 7.98764 20.5547C8.21576 19.5781 9.45326 14.3406 9.45326 14.3406C9.45326 14.3406 9.07982 13.5922 9.07982 12.4859C9.07982 10.7469 10.0876 9.45 11.3423 9.45C12.4079 9.45 12.9236 10.25 12.9236 11.2109C12.9236 12.2828 12.2408 13.8859 11.8876 15.3719C11.5939 16.6156 12.5126 17.6313 13.7392 17.6313C15.9611 17.6313 17.6689 15.2875 17.6689 11.9063C17.6689 8.91406 15.5173 6.82188 12.447 6.82188C8.89076 6.82188 6.80326 9.48906 6.80326 12.2453C6.80326 13.3203 7.21732 14.4719 7.73295 15.0984C7.77735 15.1457 7.80875 15.2036 7.82409 15.2666C7.83943 15.3296 7.83817 15.3955 7.82045 15.4578C7.72514 15.8516 7.5142 16.7016 7.47357 16.875C7.41889 17.1031 7.29232 17.1516 7.05482 17.0422C5.49232 16.3156 4.51732 14.0328 4.51732 12.1984C4.51732 8.25625 7.38295 4.63594 12.7767 4.63594C17.1126 4.63594 20.483 7.725 20.483 11.8547C20.483 16.1625 17.7658 19.6297 13.997 19.6297C12.7298 19.6297 11.5392 18.9719 11.1314 18.1938L10.3533 21.1656C10.0704 22.2516 9.30795 23.6125 8.79857 24.4422C10.5173 24.9736 12.3304 25.1278 14.1142 24.8942C15.898 24.6606 17.6103 24.0447 19.1342 23.0886C20.6581 22.1325 21.9576 20.8588 22.9441 19.3544C23.9306 17.85 24.5807 16.1504 24.8501 14.3717C25.1195 12.593 25.0017 10.7771 24.5049 9.04805C24.0081 7.31902 23.144 5.7176 21.9715 4.35318C20.799 2.98876 19.3458 1.8935 17.7112 1.14221C16.0766 0.390924 14.2991 0.0013161 12.5001 2.51595e-06Z" fill="#1E1E1E"/></g><defs><clipPath id="clip0_136_609"><rect width="25" height="25" fill="white"/></clipPath></defs></svg>