<svg width="15" height="14" viewBox="0 0 15 14" fill="none" xmlns="http://www.w3.org/2000/svg"><mask id="mask0_150_1279" style="mask-type:luminance" maskUnits="userSpaceOnUse" x="-2" y="-3" width="19" height="19"><rect x="-1.50142" y="-2.24985" width="17.9995" height="17.9995" fill="white"/></mask><g mask="url(#mask0_150_1279)"><path fill-rule="evenodd" clip-rule="evenodd" d="M0.000750149 3.10696C0.000859133 1.39094 1.39187 0 3.10792 0H11.8917C13.6079 0 14.9979 1.39104 14.9981 3.10675M14.9981 3.10675L14.9996 5.13395C14.9997 5.2832 14.9405 5.42637 14.835 5.53195C14.7295 5.63753 14.5864 5.69685 14.4371 5.69685C13.8175 5.69685 13.3196 6.19457 13.3196 6.81357C13.3196 7.43198 13.8176 7.93029 14.4371 7.93029C14.7478 7.93029 14.9996 8.18213 14.9996 8.49278V10.5177C14.9996 12.2337 13.6094 13.6249 11.8924 13.6249H3.10642C1.39009 13.6249 0 12.2336 0 10.5177V8.49278C0 8.18213 0.251833 7.93029 0.562485 7.93029C1.18106 7.93029 1.6792 7.43215 1.6792 6.81357C1.6792 6.22327 1.2109 5.76209 0.562485 5.76209C0.41327 5.76209 0.270169 5.7028 0.164677 5.59727C0.0591846 5.49174 -5.34639e-05 5.34862 4.47023e-08 5.19941L0.000750149 3.10696C0.000750149 3.1069 0.000750149 3.10703 0.000750149 3.10696M1.12572 3.10717L1.12515 4.7043C2.07575 4.93604 2.80417 5.74671 2.80417 6.81357C2.80417 7.85913 2.09178 8.73539 1.12497 8.98438V10.5177C1.12497 11.6127 2.01182 12.4999 3.10642 12.4999H11.8924C12.9879 12.4999 13.8746 11.6126 13.8746 10.5177V8.98445C12.9073 8.73558 12.1947 7.85935 12.1947 6.81357C12.1947 5.76718 12.9072 4.89157 13.8743 4.64274L13.8731 3.10758C13.8731 2.01256 12.9863 1.12497 11.8917 1.12497H3.10792C2.01311 1.12497 1.12572 2.01236 1.12572 3.10717ZM0.000750149 3.10696L14.9981 3.10675L0.000750149 3.10696Z" fill="#FFA800"/><path fill-rule="evenodd" clip-rule="evenodd" d="M8.15214 4.10148L8.67393 5.15823L9.84245 5.32817C10.4366 5.41631 10.6787 6.14757 10.2453 6.57109L10.2444 6.57194L9.39992 7.39366L9.59955 8.55603C9.70231 9.15602 9.07257 9.60171 8.54285 9.32548L8.54113 9.32458L7.49797 8.77602L6.45309 9.32548C5.92335 9.60173 5.2936 9.15624 5.39636 8.55629L5.59604 7.39354L4.75213 6.5718L4.7514 6.57109C4.31803 6.14757 4.5601 5.41631 5.15425 5.32817L5.1558 5.32794L6.322 5.15826L6.84437 4.10032L6.84501 4.09902C7.11196 3.56187 7.88351 3.55569 8.15178 4.10074C8.1519 4.10098 8.15202 4.10123 8.15214 4.10148ZM7.19984 5.92135C7.11791 6.08728 6.95961 6.2023 6.77648 6.22894L6.11189 6.32564L6.59291 6.79403C6.72566 6.92329 6.78623 7.10963 6.75487 7.29223L6.64094 7.95567L7.23617 7.64266C7.40006 7.55647 7.59587 7.55647 7.75977 7.64266L8.355 7.95567L8.24107 7.29224C8.20969 7.10956 8.27033 6.92315 8.40317 6.79389L8.8844 6.32564L8.2195 6.22895C8.03635 6.20232 7.87803 6.0873 7.79609 5.92135L7.49797 5.31757L7.19984 5.92135Z" fill="#FFA800"/></g></svg>