<svg width="58" height="58" viewBox="0 0 58 58" fill="none" xmlns="http://www.w3.org/2000/svg"><rect width="58" height="58" rx="5" fill="#E2E2E2"/><path d="M18.1885 25.2986H39.8113" stroke="black" stroke-width="1.5" stroke-miterlimit="10" stroke-linecap="round" stroke-linejoin="round"/><path d="M42.7374 23.101V36.4253C42.7374 41.128 40.4479 44.2632 35.1058 44.2632H22.8953C17.5531 44.2632 15.2637 41.128 15.2637 36.4253V23.101C15.2637 18.3983 17.5531 15.2632 22.8953 15.2632H35.1058C40.4479 15.2632 42.7374 18.3983 42.7374 23.101Z" stroke="black" stroke-width="1.5" stroke-miterlimit="10" stroke-linecap="round" stroke-linejoin="round"/><path d="M33.6982 31.1624H33.7097" stroke="#FFCC33" stroke-width="1.5" stroke-linecap="round" stroke-linejoin="round"/><path d="M33.6982 34.9783H33.7097" stroke="#FFCC33" stroke-width="1.5" stroke-linecap="round" stroke-linejoin="round"/><path d="M28.9932 31.1624H29.0046" stroke="#FFCC33" stroke-width="1.5" stroke-linecap="round" stroke-linejoin="round"/><path d="M28.9932 34.9783H29.0046" stroke="#FFCC33" stroke-width="1.5" stroke-linecap="round" stroke-linejoin="round"/><path d="M24.2871 31.1624H24.2985" stroke="#FFCC33" stroke-width="1.5" stroke-linecap="round" stroke-linejoin="round"/><path d="M24.2871 34.9783H24.2985" stroke="#FFCC33" stroke-width="1.5" stroke-linecap="round" stroke-linejoin="round"/><path d="M23.9121 16.2808V20.0966" stroke="#FFCC33" stroke-width="1.5" stroke-miterlimit="10" stroke-linecap="round" stroke-linejoin="round"/><path d="M34.0879 16.2808V20.0966" stroke="#FFCC33" stroke-width="1.5" stroke-miterlimit="10" stroke-linecap="round" stroke-linejoin="round"/></svg>