<svg width="77" height="11" viewBox="0 0 77 11" fill="none" xmlns="http://www.w3.org/2000/svg"><path d="M44.2901 4.14409L40.7224 6.61896L41.7698 10.6408L38.3032 8.21168L34.6132 10.5121L36.0382 6.53493L32.7108 3.93563L37.058 3.90693L38.6913 0L39.9525 3.95901L44.2901 4.14409Z" fill="#FFC600"/><path d="M27.9339 4.14409L24.3662 6.61896L25.4137 10.6408L21.947 8.21168L18.2571 10.5121L19.682 6.53493L16.3547 3.93563L20.7018 3.90693L22.3352 0L23.5963 3.95901L27.9339 4.14409Z" fill="#FFC600"/><path d="M11.5792 4.14409L8.01155 6.61896L9.059 10.6408L5.59235 8.21168L1.9024 10.5121L3.32733 6.53493L0 3.93563L4.34714 3.90693L5.98048 0L7.24166 3.95901L11.5792 4.14409Z" fill="#FFC600"/><path d="M60.6438 4.14409L57.0761 6.61896L58.1236 10.6408L54.6569 8.21168L50.9669 10.5121L52.3919 6.53493L49.0645 3.93563L53.4117 3.90693L55.045 0L56.3062 3.95901L60.6438 4.14409Z" fill="#FFC600"/><path d="M76.9999 4.14409L73.4322 6.61896L74.4797 10.6408L71.013 8.21168L67.3231 10.5121L68.748 6.53493L65.4207 3.93563L69.7678 3.90693L71.4011 0L72.6623 3.95901L76.9999 4.14409Z" fill="#C1C8CE"/></svg>