<svg width="138" height="20" viewBox="0 0 138 20" fill="none" xmlns="http://www.w3.org/2000/svg"><path d="M10.1134 19.6081L5.78728 11.9671H3.93322V19.6081H0.000360715V5.98002e-06H7.36042C8.87738 5.98002e-06 10.1696 0.27156 11.2371 0.814669C12.3046 1.33905 13.1005 2.06007 13.6249 2.97774C14.168 3.87668 14.4396 4.88799 14.4396 6.01166C14.4396 7.30388 14.065 8.47438 13.3159 9.52314C12.5668 10.5532 11.4525 11.2648 9.97297 11.6581L14.6643 19.6081H10.1134ZM3.93322 9.01749H7.21996C8.28745 9.01749 9.08339 8.76466 9.60777 8.25901C10.1322 7.73463 10.3943 7.0136 10.3943 6.09594C10.3943 5.197 10.1322 4.50406 9.60777 4.01714C9.08339 3.51149 8.28745 3.25866 7.21996 3.25866H3.93322V9.01749ZM24.9073 19.8609C23.4091 19.8609 22.0607 19.5332 20.8621 18.8777C19.6635 18.2035 18.7177 17.2578 18.0248 16.0404C17.3506 14.8231 17.0135 13.4185 17.0135 11.8267C17.0135 10.2348 17.3599 8.83021 18.0529 7.6129C18.7645 6.39558 19.729 5.45919 20.9463 4.80371C22.1637 4.12951 23.5214 3.7924 25.0197 3.7924C26.5179 3.7924 27.8757 4.12951 29.093 4.80371C30.3103 5.45919 31.2654 6.39558 31.9583 7.6129C32.67 8.83021 33.0258 10.2348 33.0258 11.8267C33.0258 13.4185 32.6606 14.8231 31.9303 16.0404C31.2186 17.2578 30.2447 18.2035 29.0087 18.8777C27.7914 19.5332 26.4243 19.8609 24.9073 19.8609ZM24.9073 16.4337C25.619 16.4337 26.2838 16.2652 26.9018 15.9281C27.5386 15.5723 28.0442 15.0479 28.4188 14.3549C28.7933 13.662 28.9806 12.8193 28.9806 11.8267C28.9806 10.3472 28.5873 9.21413 27.8008 8.42756C27.0329 7.62226 26.0871 7.21961 24.9635 7.21961C23.8398 7.21961 22.894 7.62226 22.1262 8.42756C21.3771 9.21413 21.0025 10.3472 21.0025 11.8267C21.0025 13.3062 21.3677 14.4486 22.0981 15.2539C22.8472 16.0404 23.7836 16.4337 24.9073 16.4337ZM41.8662 19.8609C40.5927 19.8609 39.4503 19.6362 38.439 19.1867C37.4277 18.7185 36.6224 18.0912 36.0231 17.3046C35.4425 16.518 35.1242 15.6472 35.068 14.692H39.0289C39.1038 15.2913 39.3941 15.7876 39.8998 16.1809C40.4242 16.5742 41.0703 16.7708 41.8381 16.7708C42.5872 16.7708 43.1678 16.621 43.5798 16.3214C44.0105 16.0217 44.2259 15.6378 44.2259 15.1696C44.2259 14.6639 43.9637 14.2894 43.4393 14.0459C42.9337 13.7837 42.119 13.5028 40.9954 13.2032C39.8342 12.9223 38.8791 12.632 38.13 12.3323C37.3996 12.0327 36.7629 11.5738 36.2197 10.9558C35.6954 10.3378 35.4332 9.50441 35.4332 8.45565C35.4332 7.59417 35.6766 6.8076 36.1636 6.09594C36.6692 5.38427 37.3809 4.82244 38.2985 4.41043C39.2349 3.99841 40.3305 3.7924 41.5853 3.7924C43.4393 3.7924 44.9189 4.2606 46.0238 5.197C47.1287 6.11466 47.7374 7.36007 47.8498 8.93321H44.0855C44.0293 8.31519 43.7671 7.82827 43.2989 7.47244C42.8494 7.09788 42.2408 6.9106 41.4729 6.9106C40.7613 6.9106 40.2088 7.04169 39.8155 7.30388C39.4409 7.56608 39.2537 7.93127 39.2537 8.39947C39.2537 8.92385 39.5159 9.3265 40.0402 9.60742C40.5646 9.86961 41.3793 10.1412 42.4842 10.4221C43.6079 10.703 44.5349 10.9933 45.2653 11.2929C45.9957 11.5926 46.6231 12.0608 47.1475 12.6975C47.6906 13.3155 47.9715 14.1396 47.9902 15.1696C47.9902 16.0685 47.7374 16.8738 47.2317 17.5855C46.7448 18.2972 46.0332 18.859 45.0968 19.271C44.1791 19.6643 43.1022 19.8609 41.8662 19.8609ZM50.2073 11.7705C50.2073 10.1973 50.5163 8.80212 51.1343 7.5848C51.7711 6.36749 52.6232 5.4311 53.6907 4.77562C54.7769 4.12014 55.9848 3.7924 57.3145 3.7924C58.4757 3.7924 59.487 4.0265 60.3484 4.4947C61.2287 4.9629 61.9309 5.55283 62.4553 6.26449V4.04523H66.4163V19.6081H62.4553V17.3327C61.9497 18.0631 61.2474 18.6717 60.3484 19.1586C59.4682 19.6268 58.4476 19.8609 57.2864 19.8609C55.9755 19.8609 54.7769 19.5238 53.6907 18.8496C52.6232 18.1754 51.7711 17.2297 51.1343 16.0124C50.5163 14.7763 50.2073 13.3624 50.2073 11.7705ZM62.4553 11.8267C62.4553 10.8715 62.2681 10.0569 61.8935 9.38268C61.5189 8.68975 61.0133 8.16537 60.3765 7.80954C59.7398 7.43498 59.0562 7.2477 58.3258 7.2477C57.5954 7.2477 56.9212 7.42562 56.3032 7.78145C55.6852 8.13728 55.1795 8.66166 54.7863 9.35459C54.4117 10.0288 54.2244 10.8341 54.2244 11.7705C54.2244 12.7069 54.4117 13.5309 54.7863 14.2426C55.1795 14.9355 55.6852 15.4692 56.3032 15.8438C56.94 16.2184 57.6142 16.4056 58.3258 16.4056C59.0562 16.4056 59.7398 16.2277 60.3765 15.8719C61.0133 15.4973 61.5189 14.973 61.8935 14.2988C62.2681 13.6058 62.4553 12.7818 62.4553 11.8267ZM69.2461 11.8267C69.2461 10.2161 69.5738 8.81148 70.2293 7.6129C70.8848 6.39558 71.7931 5.45919 72.9542 4.80371C74.1153 4.12951 75.445 3.7924 76.9433 3.7924C78.8722 3.7924 80.4641 4.27933 81.7189 5.25318C82.9924 6.2083 83.8445 7.55671 84.2752 9.29841H80.0334C79.8086 8.6242 79.4247 8.09982 78.8816 7.72526C78.3572 7.33198 77.7017 7.13533 76.9152 7.13533C75.7915 7.13533 74.9019 7.54735 74.2464 8.37138C73.591 9.17667 73.2632 10.3284 73.2632 11.8267C73.2632 13.3062 73.591 14.4579 74.2464 15.282C74.9019 16.0873 75.7915 16.4899 76.9152 16.4899C78.507 16.4899 79.5464 15.7783 80.0334 14.3549H84.2752C83.8445 16.0404 82.9924 17.3795 81.7189 18.3721C80.4454 19.3646 78.8535 19.8609 76.9433 19.8609C75.445 19.8609 74.1153 19.5332 72.9542 18.8777C71.7931 18.2035 70.8848 17.2671 70.2293 16.0685C69.5738 14.8512 69.2461 13.4373 69.2461 11.8267ZM101.624 11.4896C101.624 12.0514 101.586 12.5571 101.511 13.0065H90.1341C90.2278 14.1302 90.6211 15.0104 91.314 15.6472C92.0069 16.2839 92.859 16.6023 93.8704 16.6023C95.3311 16.6023 96.3705 15.9749 96.9885 14.7201H101.23C100.781 16.2184 99.9195 17.4544 98.646 18.4283C97.3725 19.3834 95.8087 19.8609 93.9546 19.8609C92.4564 19.8609 91.108 19.5332 89.9094 18.8777C88.7295 18.2035 87.8025 17.2578 87.1283 16.0404C86.4728 14.8231 86.1451 13.4185 86.1451 11.8267C86.1451 10.2161 86.4728 8.80212 87.1283 7.5848C87.7838 6.36749 88.7015 5.4311 89.8813 4.77562C91.0612 4.12014 92.4189 3.7924 93.9546 3.7924C95.4341 3.7924 96.7544 4.11078 97.9156 4.74753C99.0954 5.38428 100.004 6.29258 100.64 7.47244C101.296 8.63357 101.624 9.97261 101.624 11.4896ZM97.5504 10.3659C97.5317 9.35459 97.1665 8.54929 96.4548 7.95C95.7431 7.33198 94.8723 7.02297 93.8423 7.02297C92.8684 7.02297 92.0444 7.32261 91.3702 7.92191C90.7147 8.50247 90.312 9.31713 90.1622 10.3659H97.5504ZM103.483 11.7705C103.483 10.1973 103.792 8.80212 104.41 7.5848C105.047 6.36749 105.899 5.4311 106.966 4.77562C108.053 4.12014 109.261 3.7924 110.59 3.7924C111.751 3.7924 112.763 4.0265 113.624 4.4947C114.504 4.9629 115.207 5.55283 115.731 6.26449V4.04523H119.692V19.6081H115.731V17.3327C115.225 18.0631 114.523 18.6717 113.624 19.1586C112.744 19.6268 111.723 19.8609 110.562 19.8609C109.251 19.8609 108.053 19.5238 106.966 18.8496C105.899 18.1754 105.047 17.2297 104.41 16.0124C103.792 14.7763 103.483 13.3624 103.483 11.7705ZM115.731 11.8267C115.731 10.8715 115.544 10.0569 115.169 9.38268C114.795 8.68975 114.289 8.16537 113.652 7.80954C113.016 7.43498 112.332 7.2477 111.602 7.2477C110.871 7.2477 110.197 7.42562 109.579 7.78145C108.961 8.13728 108.455 8.66166 108.062 9.35459C107.687 10.0288 107.5 10.8341 107.5 11.7705C107.5 12.7069 107.687 13.5309 108.062 14.2426C108.455 14.9355 108.961 15.4692 109.579 15.8438C110.216 16.2184 110.89 16.4056 111.602 16.4056C112.332 16.4056 113.016 16.2277 113.652 15.8719C114.289 15.4973 114.795 14.973 115.169 14.2988C115.544 13.6058 115.731 12.7818 115.731 11.8267ZM138 11.4896C138 12.0514 137.963 12.5571 137.888 13.0065H126.511C126.605 14.1302 126.998 15.0104 127.691 15.6472C128.384 16.2839 129.236 16.6023 130.247 16.6023C131.708 16.6023 132.747 15.9749 133.365 14.7201H137.607C137.158 16.2184 136.296 17.4544 135.023 18.4283C133.749 19.3834 132.185 19.8609 130.331 19.8609C128.833 19.8609 127.485 19.5332 126.286 18.8777C125.106 18.2035 124.179 17.2578 123.505 16.0404C122.85 14.8231 122.522 13.4185 122.522 11.8267C122.522 10.2161 122.85 8.80212 123.505 7.5848C124.161 6.36749 125.078 5.4311 126.258 4.77562C127.438 4.12014 128.796 3.7924 130.331 3.7924C131.811 3.7924 133.131 4.11078 134.292 4.74753C135.472 5.38428 136.38 6.29258 137.017 7.47244C137.673 8.63357 138 9.97261 138 11.4896ZM133.927 10.3659C133.908 9.35459 133.543 8.54929 132.832 7.95C132.12 7.33198 131.249 7.02297 130.219 7.02297C129.245 7.02297 128.421 7.32261 127.747 7.92191C127.091 8.50247 126.689 9.31713 126.539 10.3659H133.927Z" fill="#151D48"/></svg>