<svg width="26" height="26" viewBox="0 0 26 26" fill="none" xmlns="http://www.w3.org/2000/svg"><path d="M13.0003 17.3333C14.1496 17.3333 15.2518 16.8767 16.0645 16.0641C16.8771 15.2514 17.3337 14.1492 17.3337 13C17.3337 11.8507 16.8771 10.7485 16.0645 9.93583C15.2518 9.12317 14.1496 8.66663 13.0003 8.66663C11.8511 8.66663 10.7489 9.12317 9.9362 9.93583C9.12354 10.7485 8.66699 11.8507 8.66699 13C8.66699 14.1492 9.12354 15.2514 9.9362 16.0641C10.7489 16.8767 11.8511 17.3333 13.0003 17.3333Z" stroke="#1E1E1E" stroke-width="1.5" stroke-linecap="round" stroke-linejoin="round"/><path d="M3.25 17.3333V8.66667C3.25 7.23008 3.82068 5.85233 4.8365 4.8365C5.85233 3.82068 7.23008 3.25 8.66667 3.25H17.3333C18.7699 3.25 20.1477 3.82068 21.1635 4.8365C22.1793 5.85233 22.75 7.23008 22.75 8.66667V17.3333C22.75 18.7699 22.1793 20.1477 21.1635 21.1635C20.1477 22.1793 18.7699 22.75 17.3333 22.75H8.66667C7.23008 22.75 5.85233 22.1793 4.8365 21.1635C3.82068 20.1477 3.25 18.7699 3.25 17.3333Z" stroke="#1E1E1E" stroke-width="1.5"/><path d="M18.958 7.05153L18.968 7.04053" stroke="#1E1E1E" stroke-width="1.5" stroke-linecap="round" stroke-linejoin="round"/></svg>