<svg width="17" height="15" viewBox="0 0 17 15" fill="none" xmlns="http://www.w3.org/2000/svg"><path fill-rule="evenodd" clip-rule="evenodd" d="M11.6856 2.13157C12.3008 2.13259 12.9027 2.31129 13.4189 2.64618C13.935 2.98108 14.3437 3.45795 14.5956 4.01952C14.8475 4.58109 14.9321 5.20348 14.8391 5.81198C14.7462 6.42047 14.4797 6.98917 14.0716 7.44981C13.4857 8.11059 8.49004 12.7894 8.49004 12.7894C8.49004 12.7894 3.48369 8.11058 2.89784 7.43914C2.38105 6.85807 2.09661 6.10673 2.09895 5.32892C2.09895 4.48093 2.43561 3.66765 3.03489 3.06803C3.63417 2.46841 4.44699 2.13157 5.2945 2.13157C6.14201 2.13157 6.95483 2.46841 7.55411 3.06803C8.15339 3.66765 8.49004 4.48093 8.49004 5.32892C8.49004 4.48093 8.8267 3.66765 9.42598 3.06803C10.0253 2.46841 10.8381 2.13157 11.6856 2.13157ZM11.6856 8.6907e-06C10.5329 -0.00207925 9.41096 0.372107 8.49004 1.06579C7.43513 0.286229 6.12986 -0.0764994 4.82426 0.047105C3.51865 0.170709 2.30448 0.771981 1.41442 1.73568C0.524365 2.69937 0.0209599 3.95777 0.0006399 5.26979C-0.0196801 6.5818 0.444568 7.85515 1.30436 8.84598C1.90299 9.53235 5.84308 13.2242 7.03608 14.339C7.43072 14.7082 7.95079 14.9137 8.49108 14.9137C9.03138 14.9137 9.55151 14.7082 9.94615 14.339C11.1349 13.2253 15.059 9.54299 15.6651 8.85769C16.3435 8.08961 16.7861 7.14207 16.9399 6.12864C17.0936 5.11522 16.952 4.07893 16.532 3.14401C16.1119 2.2091 15.4313 1.41521 14.5717 0.857565C13.7121 0.299917 12.71 0.00218703 11.6856 8.6907e-06Z" fill="#33A0FF"/></svg>