<svg width="24" height="24" viewBox="0 0 24 24" fill="none" xmlns="http://www.w3.org/2000/svg"><path d="M23 6.3999H1C0.447715 6.3999 0 6.84762 0 7.3999V22.9999C0 23.5522 0.447715 23.9999 1 23.9999H23C23.5523 23.9999 24 23.5522 24 22.9999V7.3999C24 6.84762 23.5523 6.3999 23 6.3999Z" fill="#F7D77F"/><path d="M23 0H1C0.447715 0 0 0.447715 0 1V3.8C0 4.35228 0.447715 4.8 1 4.8H23C23.5523 4.8 24 4.35228 24 3.8V1C24 0.447715 23.5523 0 23 0Z" fill="#F7D77F"/><path d="M16 17.0666L12 13.0667L8 17.0666V8.8742C8 8.6653 8.0129 6.4001 8.0129 6.4001C8.0129 6.4001 8.6389 6.3999 8.8696 6.3999H15.1304C15.3611 6.3999 16 6.4 16 6.4C16 6.4 16 8.6653 16 8.8742V17.0666Z" fill="white"/></svg>