<svg width="28" height="26" viewBox="0 0 28 26" fill="none" xmlns="http://www.w3.org/2000/svg"><path d="M7.88086 9.75L13.51 13.5417L19.1391 9.75" stroke="#1E1E1E" stroke-width="1.5" stroke-linecap="round" stroke-linejoin="round"/><path d="M2.25195 18.4166V7.58329C2.25195 7.00866 2.48918 6.45756 2.91145 6.05123C3.33371 5.6449 3.90643 5.41663 4.5036 5.41663H22.5168C23.114 5.41663 23.6867 5.6449 24.109 6.05123C24.5312 6.45756 24.7685 7.00866 24.7685 7.58329V18.4166C24.7685 18.9913 24.5312 19.5424 24.109 19.9487C23.6867 20.355 23.114 20.5833 22.5168 20.5833H4.5036C3.90643 20.5833 3.33371 20.355 2.91145 19.9487C2.48918 19.5424 2.25195 18.9913 2.25195 18.4166Z" stroke="#1E1E1E" stroke-width="1.5"/></svg>