<svg width="32" height="32" viewBox="0 0 32 32" fill="none" xmlns="http://www.w3.org/2000/svg"><path d="M21.45 25.12L20.046 24.72L20.436 26.16C19.032 27.44 17.394 28.24 15.6 28.24C13.884 28.24 12.246 27.44 10.764 26.16L11.154 24.72L9.74996 25.12C7.17596 22.24 5.45996 17.76 5.45996 14.32C5.45996 12.24 6.08397 10.24 7.17597 8.56L9.67196 9.27999L8.96996 6.56C10.764 4.96 13.104 4 15.678 4C18.252 4 20.592 4.96 22.386 6.56L21.684 9.27999L24.18 8.56C25.272 10.24 25.896 12.16 25.896 14.32C25.74 17.76 24.102 22.16 21.45 25.12Z" stroke="black" stroke-miterlimit="10" stroke-linecap="round" stroke-linejoin="round"/><path d="M11.388 17.36C12.8096 17.36 13.962 16.6437 13.962 15.76C13.962 14.8764 12.8096 14.16 11.388 14.16C9.9664 14.16 8.81396 14.8764 8.81396 15.76C8.81396 16.6437 9.9664 17.36 11.388 17.36Z" stroke="black" stroke-miterlimit="10" stroke-linecap="round" stroke-linejoin="round"/><path d="M19.8899 17.36C21.3115 17.36 22.4639 16.6437 22.4639 15.76C22.4639 14.8764 21.3115 14.16 19.8899 14.16C18.4683 14.16 17.3159 14.8764 17.3159 15.76C17.3159 16.6437 18.4683 17.36 19.8899 17.36Z" stroke="black" stroke-miterlimit="10" stroke-linecap="round" stroke-linejoin="round"/><path d="M15.5998 23.68C16.8921 23.68 17.9398 23.2144 17.9398 22.64C17.9398 22.0656 16.8921 21.6 15.5998 21.6C14.3074 21.6 13.2598 22.0656 13.2598 22.64C13.2598 23.2144 14.3074 23.68 15.5998 23.68Z" stroke="black" stroke-miterlimit="10" stroke-linecap="round" stroke-linejoin="round"/></svg>