<svg width="16" height="16" viewBox="0 0 16 16" fill="none" xmlns="http://www.w3.org/2000/svg"><path fill-rule="evenodd" clip-rule="evenodd" d="M13.5767 0.0218893L10.0755 0.522054C9.54064 0.598468 9.10362 0.853422 8.79157 1.20577L0.622453 9.37489C-0.206241 10.2036 -0.206275 11.5471 0.622453 12.3759L3.62342 15.3768C4.45215 16.2056 5.7957 16.2055 6.62439 15.3768L14.7935 7.20771C15.1459 6.89565 15.4008 6.45864 15.4772 5.92376L15.9774 2.42263C16.1775 1.02223 14.977 -0.178229 13.5767 0.0218893ZM11.1258 4.87344C11.5402 5.28776 12.212 5.28779 12.6263 4.87344C13.0407 4.45908 13.0406 3.78727 12.6263 3.37295C12.212 2.95864 11.5402 2.9586 11.1258 3.37295C10.7115 3.78731 10.7115 4.45912 11.1258 4.87344Z" fill="white"/></svg>