<svg width="18" height="13" viewBox="0 0 18 13" fill="none" xmlns="http://www.w3.org/2000/svg"><path d="M17.7678 1.54116C17.0996 1.80366 16.393 1.97817 15.6696 2.05933C16.4323 1.65215 17.0025 1.00726 17.2724 0.246838C16.5591 0.627665 15.7789 0.896072 14.9654 1.04049C14.4661 0.559443 13.8176 0.224818 13.1042 0.0801534C12.3908 -0.064511 11.6456 -0.0125191 10.9654 0.229365C10.2853 0.471249 9.7018 0.891827 9.29081 1.43637C8.87983 1.98092 8.6604 2.62423 8.66108 3.28259C8.65842 3.53391 8.68693 3.7847 8.74608 4.03032C7.29705 3.96627 5.87934 3.62762 4.58565 3.0365C3.29195 2.44538 2.15138 1.6151 1.23851 0.599936C0.769695 1.32132 0.624491 2.17663 0.832561 2.99116C1.04063 3.80569 1.58627 4.51796 2.35803 4.98248C1.78162 4.9687 1.21733 4.83036 0.712751 4.5791V4.61517C0.713531 5.37195 1.00365 6.10541 1.53434 6.69229C2.06503 7.27917 2.80395 7.68369 3.6269 7.83786C3.31516 7.9123 2.99381 7.94906 2.6713 7.94717C2.43985 7.95096 2.20862 7.93227 1.98162 7.89142C2.21669 8.54182 2.66978 9.11069 3.27859 9.51981C3.88739 9.92894 4.62201 10.1582 5.38146 10.1762C4.09364 11.0821 2.50612 11.5739 0.871815 11.5732C0.580445 11.5751 0.289244 11.5601 0 11.5284C1.66491 12.4942 3.60486 13.0053 5.58544 12.9998C6.94932 13.0084 8.3015 12.7729 9.56343 12.307C10.8254 11.8412 11.9719 11.1542 12.9364 10.286C13.901 9.41781 14.6643 8.38574 15.1821 7.24972C15.6998 6.1137 15.9617 4.89639 15.9525 3.66848C15.9525 3.52309 15.9525 3.38316 15.9392 3.24433C16.6587 2.78152 17.2784 2.20434 17.7678 1.54116Z" fill="white"/></svg>