<svg width="50" height="50" viewBox="0 0 50 50" fill="none" xmlns="http://www.w3.org/2000/svg"><path fill-rule="evenodd" clip-rule="evenodd" d="M13.7944 21.9698C13.7944 16.5306 18.8114 12.1213 24.9998 12.1213C31.1882 12.1213 36.2051 16.5307 36.2051 21.9698C36.2051 27.4092 31.1882 31.8183 24.9998 31.8183C18.8114 31.8183 13.7944 27.4092 13.7944 21.9698ZM24.9998 16.6668C21.6676 16.6668 18.9661 19.0411 18.9661 21.9698C18.9661 24.8987 21.6676 27.2729 24.9998 27.2729C28.332 27.2729 31.0334 24.8987 31.0334 21.9698C31.0334 19.0411 28.332 16.6668 24.9998 16.6668Z" fill="#1A1A1A"/><path fill-rule="evenodd" clip-rule="evenodd" d="M25.008 4.54546C16.358 4.54034 7.98211 8.91861 5.74137 17.5316C3.0763 27.8316 10.3612 36.839 17.4056 42.7778C21.6586 46.3493 28.3448 46.3434 32.5652 42.7805L32.5699 42.7766C39.6401 36.838 46.924 27.8526 44.2584 17.5533L44.2584 17.5532C42.0295 8.93945 33.6588 4.55057 25.008 4.54546ZM49.3013 16.545C46.436 5.47208 35.587 0.00625808 25.0115 5.37077e-06C14.4357 -0.00624734 3.57921 5.44707 0.699396 16.52L0.69879 16.5223C-2.61283 29.3177 6.52622 39.9049 13.8276 46.0599L13.8309 46.0626C20.0764 51.309 29.9155 51.3158 36.143 46.0627C43.4715 39.9073 52.6134 29.3424 49.3013 16.545Z" fill="#1A1A1A"/></svg>