<svg width="26" height="26" viewBox="0 0 26 26" fill="none" xmlns="http://www.w3.org/2000/svg"><path d="M13.2647 4.33337C13.8432 4.33662 15.2905 4.35071 16.8288 4.41246L17.3748 4.43629C18.9229 4.50887 20.4699 4.63454 21.238 4.84796C22.2617 5.13612 23.0656 5.97462 23.3375 7.03846C23.7708 8.72846 23.825 12.024 23.8315 12.8224L23.8326 12.987V13.1755C23.825 13.974 23.7708 17.2705 23.3375 18.9595C23.0623 20.0265 22.2574 20.8661 21.238 21.15C20.4699 21.3634 18.9229 21.489 17.3748 21.5616L16.8288 21.5865C15.2905 21.6472 13.8432 21.6624 13.2647 21.6645L13.0101 21.6656H12.7338C11.5097 21.658 6.38983 21.6028 4.76049 21.15C3.73783 20.8618 2.93291 20.0233 2.66099 18.9595C2.22766 17.2695 2.17349 13.974 2.16699 13.1755V12.8224C2.17349 12.024 2.22766 8.72737 2.66099 7.03846C2.93616 5.97137 3.74108 5.13179 4.76158 4.84904C6.38983 4.39512 11.5107 4.33987 12.7349 4.33337H13.2647ZM10.8326 9.20837V16.7917L17.3326 13L10.8326 9.20837Z" fill="#1E1E1E"/></svg>