<svg width="25" height="18" viewBox="0 0 25 18" fill="none" xmlns="http://www.w3.org/2000/svg"><path d="M2.5 0.25C1.25736 0.25 0.25 1.25736 0.25 2.5V15.5C0.25 16.7426 1.25736 17.75 2.5 17.75H22.5C23.7426 17.75 24.75 16.7426 24.75 15.5V2.5C24.75 1.25736 23.7426 0.25 22.5 0.25H2.5Z" fill="white" stroke="#CAD2DB" stroke-width="0.5"/><path fill-rule="evenodd" clip-rule="evenodd" d="M14.4301 6.82104C14.1973 6.73467 13.8326 6.64209 13.377 6.64209C12.216 6.64209 11.398 7.22008 11.3911 8.04845C11.3846 8.6608 11.975 9.00245 12.4207 9.2063C12.878 9.41513 13.0318 9.54836 13.0296 9.7349C13.0268 10.0205 12.6644 10.1511 12.3266 10.1511C11.8564 10.1511 11.6066 10.0865 11.2207 9.9274L11.0692 9.85964L10.9043 10.8136C11.1788 10.9326 11.6862 11.0357 12.2132 11.041C13.4483 11.041 14.2502 10.4696 14.2593 9.58501C14.2637 9.10025 13.9506 8.73126 13.2728 8.42716C12.8621 8.23001 12.6106 8.09841 12.6132 7.89881C12.6132 7.72165 12.8261 7.53226 13.2861 7.53226C13.6704 7.52638 13.9487 7.60916 14.1655 7.69553L14.2708 7.74468L14.4301 6.82104Z" fill="#00579F"/><path fill-rule="evenodd" clip-rule="evenodd" d="M15.9942 9.46705C16.0914 9.22148 16.4623 8.27572 16.4623 8.27572C16.4554 8.28707 16.5588 8.02901 16.6182 7.86901L16.6976 8.23645C16.6976 8.23645 16.9225 9.25373 16.9695 9.46705H15.9942ZM17.4431 6.72021H16.5352C16.2539 6.72021 16.0434 6.79606 15.9199 7.07362L14.1748 10.9792H15.4086C15.4086 10.9792 15.6104 10.454 15.656 10.3388C15.7909 10.3388 16.9895 10.3406 17.1609 10.3406C17.1961 10.4897 17.3038 10.9792 17.3038 10.9792H18.3941L17.4431 6.72021Z" fill="#00579F"/><path fill-rule="evenodd" clip-rule="evenodd" d="M8.00777 6.71924L6.85736 9.62542L6.73481 9.03478C6.52068 8.35393 5.85344 7.61634 5.10742 7.2471L6.15932 10.9741L7.40255 10.9728L9.25241 6.71924H8.00777Z" fill="#00579F"/><path fill-rule="evenodd" clip-rule="evenodd" d="M5.79059 6.7168H3.89589L3.88086 6.80545C5.35498 7.15821 6.33033 8.01074 6.73521 9.03495L6.32323 7.07657C6.25204 6.80676 6.04576 6.72619 5.79059 6.7168Z" fill="#F9A51A"/><path fill-rule="evenodd" clip-rule="evenodd" d="M9.72779 6.71631L8.99316 10.9781H10.1677L10.9028 6.71631H9.72779Z" fill="#00579F"/><path fill-rule="evenodd" clip-rule="evenodd" d="M0.5 2.5C0.5 1.39543 1.39543 0.5 2.5 0.5H22.5C23.6046 0.5 24.5 1.39543 24.5 2.5V5.5H0.5V2.5Z" fill="#00579F"/><path fill-rule="evenodd" clip-rule="evenodd" d="M24.5 15.5C24.5 16.6046 23.6046 17.5 22.5 17.5L2.5 17.5C1.39543 17.5 0.5 16.6046 0.5 15.5V12.5L24.5 12.5V15.5Z" fill="#F9A51A"/></svg>