<svg width="29" height="32" viewBox="0 0 29 32" fill="none" xmlns="http://www.w3.org/2000/svg"><path d="M0.750683 11.4446V20.2595C0.750683 23.4982 0.750683 23.4982 3.80609 25.5606L12.2085 30.4187C13.4765 31.152 15.5389 31.152 16.7916 30.4187L25.194 25.5606C28.2494 23.4982 28.2494 23.4982 28.2494 20.2747V11.4446C28.2494 8.22116 28.2494 8.22116 25.194 6.15876L16.7916 1.30066C15.5389 0.567358 13.4765 0.567358 12.2085 1.30066L3.80609 6.15876C0.750683 8.22116 0.750683 8.22116 0.750683 11.4446Z" stroke="black" stroke-width="1.5" stroke-linecap="round" stroke-linejoin="round"/><path d="M14.5003 20.4424C17.0316 20.4424 19.0834 18.3905 19.0834 15.8592C19.0834 13.328 17.0316 11.2761 14.5003 11.2761C11.9691 11.2761 9.91722 13.328 9.91722 15.8592C9.91722 18.3905 11.9691 20.4424 14.5003 20.4424Z" stroke="#FFCC33" stroke-width="1.5" stroke-linecap="round" stroke-linejoin="round"/></svg>