<svg width="32" height="32" viewBox="0 0 32 32" fill="none" xmlns="http://www.w3.org/2000/svg"><path d="M15.9999 22C12.8395 22 10.2812 19.5537 10.0458 16.4537L5.67498 13.0758C5.1004 13.7967 4.57165 14.5587 4.14499 15.3921C4.04967 15.5806 4.00001 15.7889 4.00001 16.0002C4.00001 16.2115 4.04967 16.4198 4.14499 16.6083C6.40456 21.0171 10.8779 24 15.9999 24C17.1212 24 18.2029 23.8333 19.2454 23.5641L17.0833 21.8912C16.7262 21.9602 16.3636 21.9966 15.9999 22ZM29.0757 24.4208L24.4695 20.8608C25.8687 19.6816 27.0195 18.2359 27.8549 16.6079C27.9502 16.4194 27.9999 16.2111 27.9999 15.9998C27.9999 15.7885 27.9502 15.5802 27.8549 15.3917C25.5953 10.9829 21.122 8.00002 15.9999 8.00002C13.8547 8.00262 11.7444 8.54267 9.86164 9.57085L4.56082 5.47378C4.4917 5.41999 4.41265 5.38035 4.3282 5.35712C4.24375 5.33389 4.15555 5.32754 4.06864 5.33841C3.98173 5.34928 3.89782 5.37717 3.8217 5.42049C3.74557 5.46381 3.67873 5.5217 3.62499 5.59086L2.80707 6.64377C2.69857 6.78335 2.64996 6.96031 2.67191 7.13573C2.69387 7.31114 2.7846 7.47066 2.92416 7.57919L27.4391 26.5262C27.5082 26.58 27.5873 26.6196 27.6717 26.6429C27.7562 26.6661 27.8443 26.6725 27.9313 26.6616C28.0182 26.6507 28.1021 26.6228 28.1782 26.5795C28.2543 26.5362 28.3212 26.4783 28.3749 26.4091L29.1932 25.3562C29.3017 25.2166 29.3502 25.0396 29.3282 24.8642C29.3062 24.6888 29.2154 24.5293 29.0757 24.4208ZM21.4208 18.5042L19.7833 17.2383C19.9212 16.8398 19.9943 16.4217 19.9999 16C20.0081 15.3826 19.8713 14.7719 19.6006 14.217C19.3299 13.662 18.9328 13.1783 18.4413 12.8047C17.9497 12.431 17.3774 12.1779 16.7702 12.0656C16.1631 11.9532 15.5381 11.9849 14.9454 12.1579C15.1966 12.4984 15.3325 12.9102 15.3333 13.3333C15.3271 13.4741 15.3056 13.6139 15.2691 13.75L12.202 11.3796C13.2675 10.4893 14.6115 10.001 15.9999 10C16.788 9.99958 17.5684 10.1545 18.2966 10.4558C19.0247 10.7572 19.6863 11.1992 20.2436 11.7564C20.8008 12.3136 21.2427 12.9752 21.5441 13.7034C21.8455 14.4315 22.0004 15.2119 21.9999 16C21.9999 16.9012 21.7795 17.7412 21.4208 18.5046V18.5042Z" fill="black"/></svg>