<svg width="33" height="33" viewBox="0 0 33 33" fill="none" xmlns="http://www.w3.org/2000/svg"><path d="M8.14976 8.18769L9.24615 7.43187C9.84659 7.01731 10.5774 6.83538 11.3021 6.92001C12.0268 7.00465 12.696 7.35008 13.1847 7.89184L14.7946 9.67647C15.2149 10.1425 15.4788 10.7284 15.5491 11.352C15.6195 11.9756 15.4929 12.6056 15.1871 13.1536L14.0984 15.1031C14.0666 15.16 14.0562 15.2265 14.0692 15.2904C14.1563 15.7181 14.6949 16.4321 15.7008 17.3424C16.4303 18.0041 17.0396 18.4383 17.5033 18.6414C17.8281 18.7837 17.9818 18.787 18.0358 18.7513L19.9206 17.4386C20.4354 17.0802 21.0494 16.8919 21.6766 16.9C22.3038 16.9081 22.9127 17.1122 23.4181 17.4838L25.3441 18.9027C25.9302 19.3339 26.34 19.9631 26.4973 20.6736C26.6546 21.384 26.5488 22.1274 26.1995 22.7657L25.5581 23.9364C25.218 24.5571 24.7231 25.0791 24.1213 25.4516C23.5196 25.8241 22.8317 26.0344 22.1246 26.0621C19.0024 26.1842 15.6561 24.5935 12.0726 21.3491C8.48529 18.1002 6.56984 14.9239 6.38829 11.799C6.34714 11.0963 6.48769 10.3949 6.7964 9.76229C7.10511 9.1297 7.57052 8.58763 8.14976 8.18769ZM9.08127 9.53748C8.73355 9.77717 8.45344 10.1024 8.26792 10.4818C8.08241 10.8612 7.99776 11.282 8.02212 11.7036C8.17668 14.3309 9.87401 17.1469 13.1727 20.134C16.4676 23.1166 19.4343 24.5265 22.0613 24.4248C22.4856 24.4081 22.8983 24.2818 23.2593 24.0582C23.6202 23.8346 23.9171 23.5213 24.121 23.1489L24.7614 21.9785C24.9204 21.6883 24.9686 21.3503 24.8971 21.0273C24.8256 20.7042 24.6394 20.4181 24.3729 20.222L22.4472 18.8042C22.2174 18.6351 21.9404 18.5421 21.6551 18.5384C21.3697 18.5347 21.0904 18.6205 20.8563 18.7836L18.9669 20.1C17.8664 20.8537 16.4477 20.2302 14.6007 18.5575C13.3555 17.4315 12.6383 16.4799 12.4637 15.6166C12.3723 15.1685 12.4455 14.7041 12.667 14.3045L13.7557 12.355C13.8946 12.1058 13.952 11.8194 13.9199 11.536C13.8877 11.2525 13.7676 10.9863 13.5765 10.7745L11.9677 8.98957C11.7455 8.74331 11.4413 8.58632 11.1118 8.54787C10.7824 8.50942 10.4502 8.59215 10.1773 8.78062L9.08127 9.53748Z" fill="#1E1E1E"/></svg>