<svg width="29" height="33" viewBox="0 0 29 33" fill="none" xmlns="http://www.w3.org/2000/svg"><path d="M23.6663 26.5078H22.5052C21.283 26.5078 20.122 26.9814 19.2665 27.8369L16.6541 30.4187C15.4625 31.595 13.5223 31.595 12.3307 30.4187L9.71831 27.8369C8.86279 26.9814 7.68646 26.5078 6.47958 26.5078H5.3338C2.79781 26.5078 0.750683 24.4759 0.750683 21.9705V5.28797C0.750683 2.78253 2.79781 0.750683 5.3338 0.750683H23.6663C26.2022 0.750683 28.2494 2.78253 28.2494 5.28797V21.9552C28.2494 24.4607 26.2022 26.5078 23.6663 26.5078Z" stroke="black" stroke-width="1.5" stroke-miterlimit="10" stroke-linecap="round" stroke-linejoin="round"/><path d="M14.6079 11.3685C14.5468 11.3685 14.455 11.3685 14.3786 11.3685C12.7746 11.3074 11.5066 10.0088 11.5066 8.38946C11.5066 6.73954 12.8358 5.41044 14.4857 5.41044C16.1357 5.41044 17.4648 6.75482 17.4648 8.38946C17.48 10.0088 16.212 11.3227 14.6079 11.3685Z" stroke="#FFCC33" stroke-width="1.5" stroke-linecap="round" stroke-linejoin="round"/><path d="M10.2975 15.9666C8.26564 17.3263 8.26564 19.5415 10.2975 20.9011C12.6044 22.4441 16.3931 22.4441 18.6999 20.9011C20.7318 19.5415 20.7318 17.3263 18.6999 15.9666C16.3931 14.4389 12.6197 14.4389 10.2975 15.9666Z" stroke="#FFCC33" stroke-width="1.5" stroke-linecap="round" stroke-linejoin="round"/></svg>
