<svg width="26" height="26" viewBox="0 0 26 26" fill="none" xmlns="http://www.w3.org/2000/svg"><g clip-path="url(#clip0_175_570)"><path fill-rule="evenodd" clip-rule="evenodd" d="M8.9375 16.25C8.9375 16.0345 9.0231 15.8278 9.17548 15.6755C9.32785 15.5231 9.53451 15.4375 9.75 15.4375H16.25C16.4655 15.4375 16.6722 15.5231 16.8245 15.6755C16.9769 15.8278 17.0625 16.0345 17.0625 16.25C17.0625 16.4655 16.9769 16.6722 16.8245 16.8245C16.6722 16.9769 16.4655 17.0625 16.25 17.0625H9.75C9.53451 17.0625 9.32785 16.9769 9.17548 16.8245C9.0231 16.6722 8.9375 16.4655 8.9375 16.25Z" fill="#1E1E1E"/><path d="M13 1.625C14.0774 1.625 15.1108 2.05301 15.8726 2.81488C16.6345 3.57675 17.0625 4.61006 17.0625 5.6875V6.5H8.9375V5.6875C8.9375 4.61006 9.36551 3.57675 10.1274 2.81488C10.8892 2.05301 11.9226 1.625 13 1.625ZM18.6875 6.5V5.6875C18.6875 4.17908 18.0883 2.73244 17.0217 1.66583C15.9551 0.599217 14.5084 0 13 0C11.4916 0 10.0449 0.599217 8.97833 1.66583C7.91172 2.73244 7.3125 4.17908 7.3125 5.6875V6.5H1.625V22.75C1.625 23.612 1.96741 24.4386 2.5769 25.0481C3.1864 25.6576 4.01305 26 4.875 26H21.125C21.987 26 22.8136 25.6576 23.4231 25.0481C24.0326 24.4386 24.375 23.612 24.375 22.75V6.5H18.6875ZM3.25 8.125H22.75V22.75C22.75 23.181 22.5788 23.5943 22.274 23.899C21.9693 24.2038 21.556 24.375 21.125 24.375H4.875C4.44402 24.375 4.0307 24.2038 3.72595 23.899C3.4212 23.5943 3.25 23.181 3.25 22.75V8.125Z" fill="#1E1E1E"/></g><defs><clipPath id="clip0_175_570"><rect width="26" height="26" fill="white"/></clipPath></defs></svg>