<svg width="22" height="22" viewBox="0 0 22 22" fill="none" xmlns="http://www.w3.org/2000/svg"><path fill-rule="evenodd" clip-rule="evenodd" d="M16.9554 17.3944L21.6602 11.9049C21.8849 11.6486 21.9998 11.325 22 10.9998C22.0001 10.7772 21.9465 10.5539 21.8375 10.3507C21.7891 10.2602 21.7299 10.1742 21.6602 10.0947L16.9554 4.6051C16.4612 4.02852 15.5932 3.9617 15.0167 4.45586C14.4401 4.95002 14.3733 5.81803 14.8674 6.39461L17.6358 9.62473L6.98721 9.62472C6.22784 9.62472 5.61226 10.2403 5.61226 10.9997C5.61226 11.7591 6.22784 12.3746 6.98721 12.3746L17.6359 12.3746L14.8674 15.6049C14.3732 16.1815 14.4401 17.0495 15.0167 17.5437C15.5932 18.0378 16.4612 17.971 16.9554 17.3944ZM8.25042 2.74992C9.00979 2.74992 9.62538 3.36551 9.62538 4.12487L9.62538 6.18731C9.62538 6.94668 10.241 7.56227 11.0003 7.56227C11.7597 7.56227 12.3753 6.94668 12.3753 6.18731L12.3753 4.12487C12.3753 1.84677 10.5285 -5.01434e-07 8.25042 -6.01013e-07L4.12554 -7.81317e-07C1.84744 -8.80896e-07 0.00067063 1.84677 0.00067053 4.12487L0.000669929 17.8745C0.00066983 20.1526 1.84744 21.9993 4.12554 21.9993L8.25042 21.9993C10.5285 21.9993 12.3753 20.1526 12.3753 17.8745L12.3753 15.812C12.3753 15.0526 11.7597 14.4371 11.0003 14.4371C10.241 14.4371 9.62538 15.0526 9.62538 15.812L9.62538 17.8745C9.62538 18.6338 9.00979 19.2494 8.25042 19.2494L4.12554 19.2494C3.36618 19.2494 2.75059 18.6338 2.75059 17.8745L2.75059 4.12487C2.75059 3.3655 3.36618 2.74992 4.12554 2.74992L8.25042 2.74992Z" fill="#737791"/></svg>