<svg width="15" height="16" viewBox="0 0 15 16" fill="none" xmlns="http://www.w3.org/2000/svg"><mask id="mask0_150_1262" style="mask-type:luminance" maskUnits="userSpaceOnUse" x="-8" y="-7" width="31" height="30"><rect x="-7.11769" y="-6.86928" width="29.749" height="29.749" fill="white"/></mask><g mask="url(#mask0_150_1262)"><mask id="mask1_150_1262" style="mask-type:luminance" maskUnits="userSpaceOnUse" x="-2" y="-1" width="19" height="18"><rect x="-1.16812" y="-0.919469" width="17.8494" height="17.8494" fill="white"/></mask><g mask="url(#mask1_150_1262)"><path fill-rule="evenodd" clip-rule="evenodd" d="M10.6081 15.0706C12.8886 15.0706 14.6381 14.2468 14.1412 10.9316L13.5625 6.43857C13.2562 4.78433 12.2011 4.15123 11.2752 4.15123H3.70521C2.76576 4.15123 1.77186 4.83199 1.41786 6.43857L0.839222 10.9316C0.417158 13.8724 2.11905 15.0706 4.39958 15.0706H10.6081Z" stroke="#4AB58E" stroke-width="1.5" stroke-linecap="round" stroke-linejoin="round"/><path d="M4.29724 3.98791C4.29724 2.21333 5.73582 0.774743 7.51039 0.774743C8.36493 0.771121 9.18571 1.10805 9.79125 1.71103C10.3968 2.31401 10.7372 3.13336 10.7372 3.98791" stroke="#4AB58E" stroke-width="1.5" stroke-linecap="round" stroke-linejoin="round"/><path d="M5.30397 7.33734H5.33801" stroke="#4AB58E" stroke-width="1.5" stroke-linecap="round" stroke-linejoin="round"/><path d="M9.64156 7.33734H9.67562" stroke="#4AB58E" stroke-width="1.5" stroke-linecap="round" stroke-linejoin="round"/></g></g></svg>