<svg width="17" height="18" viewBox="0 0 17 18" fill="none" xmlns="http://www.w3.org/2000/svg"><path fill-rule="evenodd" clip-rule="evenodd" d="M13.8127 11.7293C14.3042 11.7285 14.7802 11.5571 15.1595 11.2445C15.5389 10.9318 15.7981 10.4972 15.893 10.0147L16.9587 4.68323C17.0205 4.37422 17.013 4.05534 16.9368 3.74956C16.8607 3.44379 16.7177 3.15872 16.5183 2.91482C16.3189 2.67093 16.0679 2.47423 15.7834 2.33898C15.499 2.20373 15.1881 2.13327 14.8731 2.1326H4.26288V1.0663C4.26288 0.783501 4.15058 0.512298 3.95072 0.312328C3.75086 0.112358 3.47981 0 3.19716 0H1.07533C0.792683 0 0.521597 0.112358 0.321737 0.312328C0.121876 0.512298 0.00961314 0.783501 0.00961314 1.0663C0.00961314 1.3491 0.121876 1.62031 0.321737 1.82028C0.521597 2.02025 0.792683 2.1326 1.07533 2.1326H2.14104V12.7956C1.71908 12.7937 1.30605 12.9172 0.954277 13.1504C0.602506 13.3836 0.327803 13.7159 0.165008 14.1055C0.0022136 14.495 -0.0413608 14.9241 0.0397945 15.3384C0.12095 15.7527 0.323183 16.1336 0.620883 16.4328C0.918584 16.732 1.29835 16.936 1.71206 17.0191C2.12578 17.1022 2.55485 17.0606 2.94488 16.8994C3.33491 16.7383 3.66835 16.4649 3.90298 16.114C4.13761 15.7631 4.26287 15.3504 4.26288 14.9282H11.6898C11.6915 15.348 11.8175 15.7578 12.0518 16.1059C12.286 16.4541 12.6182 16.7251 13.0062 16.8845C13.3943 17.044 13.8209 17.0848 14.2321 17.0019C14.6433 16.919 15.0208 16.716 15.3168 16.4186C15.6129 16.1212 15.8142 15.7427 15.8955 15.331C15.9767 14.9192 15.9341 14.4925 15.7732 14.1049C15.6123 13.7172 15.3402 13.386 14.9913 13.153C14.6424 12.92 14.2323 12.7956 13.8127 12.7956H4.26288V11.7293H13.8127ZM14.8785 4.26521L13.8127 9.59672H4.26288V4.26521H14.8731H14.8785Z" fill="#33A0FF"/></svg>