<svg width="32" height="32" viewBox="0 0 32 32" fill="none" xmlns="http://www.w3.org/2000/svg"><g clip-path="url(#clip0_150_381)"><path d="M25.6985 14.4141H25.1678C24.9954 13.8745 24.7778 13.3504 24.5172 12.8468L24.8931 12.4709C25.8045 11.5605 25.7801 10.1016 24.8934 9.21582L23.7845 8.10693C22.8993 7.22056 21.44 7.19487 20.5293 8.10659L20.1532 8.48276C19.6496 8.22222 19.1254 8.00464 18.5859 7.83223V7.30142C18.5859 6.03242 17.5535 5 16.2845 5H14.7155C13.4465 5 12.4141 6.03242 12.4141 7.30142V7.83223C11.8746 8.00459 11.3504 8.22217 10.8468 8.48276L10.471 8.10693C9.56216 7.19702 8.10293 7.21836 7.21592 8.10664L6.10688 9.21558C5.22056 10.1009 5.19492 11.56 6.10659 12.4707L6.48276 12.8469C6.22217 13.3504 6.00464 13.8745 5.83223 14.4141H5.30146C4.03247 14.4141 3 15.4465 3 16.7155V18.2845C3 19.5535 4.03247 20.5859 5.30146 20.5859H5.83223C6.00464 21.1255 6.22217 21.6496 6.48276 22.1532L6.10688 22.5291C5.19551 23.4395 5.21992 24.8984 6.10659 25.7842L7.21553 26.8931C8.10073 27.7794 9.56001 27.8051 10.4707 26.8934L10.8468 26.5172C11.3504 26.7778 11.8746 26.9954 12.4141 27.1678V27.6986C12.4141 28.9676 13.4465 30 14.7155 30H16.2845C17.5535 30 18.586 28.9676 18.586 27.6986V27.1678C19.1255 26.9954 19.6497 26.7778 20.1532 26.5172L20.5291 26.8931C21.4379 27.803 22.8971 27.7816 23.7841 26.8934L24.8932 25.7844C25.7795 24.899 25.8051 23.4399 24.8935 22.5292L24.5173 22.1531C24.7779 21.6495 24.9954 21.1254 25.1678 20.5858H25.6986C26.9676 20.5858 28 19.5534 28 18.2844V16.7154C28 15.4465 26.9675 14.4141 25.6985 14.4141ZM15.5 22.9395C12.5006 22.9395 10.0605 20.4993 10.0605 17.5C10.0605 14.5007 12.5006 12.0605 15.5 12.0605C18.4994 12.0605 20.9395 14.5007 20.9395 17.5C20.9395 20.4993 18.4994 22.9395 15.5 22.9395Z" fill="#737791"/></g><defs><clipPath id="clip0_150_381"><rect width="25" height="25" fill="white" transform="translate(3 5)"/></clipPath></defs></svg>