<svg width="11" height="11" viewBox="0 0 11 11" fill="none" xmlns="http://www.w3.org/2000/svg"><path fill-rule="evenodd" clip-rule="evenodd" d="M8.69747 2.52237L5.95261 0.169903C5.82446 0.0575604 5.66268 8.49893e-05 5.50004 9.31708e-08C5.38876 -5.76814e-05 5.27709 0.0267535 5.17551 0.0812422C5.13025 0.105462 5.08724 0.135041 5.04747 0.169903L2.30262 2.52237C2.01432 2.76946 1.98091 3.20347 2.22799 3.49177C2.47508 3.78007 2.9091 3.81348 3.1974 3.5664L4.8125 2.18218V7.50661C4.8125 7.8863 5.1203 8.19411 5.5 8.19411C5.87969 8.19411 6.1875 7.8863 6.1875 7.50661L6.1875 2.1821L7.80269 3.5664C8.09099 3.81348 8.52501 3.78007 8.77209 3.49177C9.01918 3.20347 8.98577 2.76946 8.69747 2.52237ZM1.375 6.87499C1.375 6.49529 1.6828 6.18749 2.0625 6.18749H3.09374C3.47344 6.18749 3.78124 5.87969 3.78124 5.49999C3.78124 5.12029 3.47344 4.81249 3.09374 4.81249H2.0625C0.923411 4.81249 0 5.7359 0 6.87499V8.93748C0 10.0766 0.923411 11 2.0625 11H8.93748C10.0766 11 11 10.0766 11 8.93748V6.87499C11 5.7359 10.0766 4.81249 8.93748 4.81249H7.90624C7.52654 4.81249 7.21874 5.12029 7.21874 5.49999C7.21874 5.87969 7.52654 6.18749 7.90624 6.18749H8.93748C9.31718 6.18749 9.62498 6.49529 9.62498 6.87499V8.93748C9.62498 9.31718 9.31718 9.62498 8.93748 9.62498H2.0625C1.6828 9.62498 1.375 9.31718 1.375 8.93748V6.87499Z" fill="#0F3659"/></svg>