<svg width="32" height="32" viewBox="0 0 32 32" fill="none" xmlns="http://www.w3.org/2000/svg"><path d="M27.0182 15.6463H26.4566C26.2742 15.0934 26.044 14.5564 25.7682 14.0404L26.166 13.6552C27.1303 12.7224 27.1045 11.2274 26.1663 10.3198L24.9929 9.18358C24.0562 8.27533 22.5121 8.24902 21.5485 9.18323L21.1505 9.56868C20.6176 9.3017 20.063 9.07876 19.4921 8.90209V8.35819C19.4921 7.05789 18.3997 6 17.0568 6H15.3966C14.0538 6 12.9614 7.05789 12.9614 8.35819V8.90209C12.3905 9.07871 11.8359 9.30165 11.303 9.56868L10.9054 9.18358C9.94368 8.25122 8.39961 8.27308 7.46103 9.18328L6.28752 10.3196C5.34966 11.2268 5.32253 12.7218 6.28721 13.655L6.68525 14.0404C6.4095 14.5564 6.17933 15.0934 5.99689 15.6463H5.43527C4.0925 15.6463 3 16.7042 3 18.0045V19.6122C3 20.9125 4.0925 21.9704 5.43527 21.9704H5.99689C6.17933 22.5233 6.4095 23.0603 6.68525 23.5763L6.28752 23.9615C5.32315 24.8943 5.34899 26.3893 6.28721 27.2969L7.46062 28.4331C8.39729 29.3414 9.94141 29.3677 10.905 28.4335L11.303 28.048C11.8359 28.315 12.3905 28.5379 12.9614 28.7146V29.2585C12.9614 30.5588 14.0539 31.6167 15.3967 31.6167H17.0569C18.3997 31.6167 19.4921 30.5588 19.4921 29.2585V28.7146C20.063 28.538 20.6177 28.315 21.1505 28.048L21.5482 28.4331C22.5099 29.3655 24.0539 29.3436 24.9925 28.4334L26.166 27.2971C27.1039 26.3899 27.131 24.8948 26.1663 23.9617L25.7683 23.5762C26.044 23.0602 26.2742 22.5232 26.4566 21.9703H27.0183C28.361 21.9703 29.4535 20.9124 29.4535 19.6121V18.0044C29.4535 16.7042 28.361 15.6463 27.0182 15.6463ZM16.2267 24.382C13.053 24.382 10.471 21.8817 10.471 18.8083C10.471 15.735 13.053 13.2347 16.2267 13.2347C19.4005 13.2347 21.9824 15.735 21.9824 18.8083C21.9824 21.8817 19.4005 24.382 16.2267 24.382Z" fill="#1814F3"/></svg>